<svg width="26" height="26" viewBox="0 0 26 26" fill="none" xmlns="http://www.w3.org/2000/svg">
<path d="M5.8438 5.5625H19.6563C19.8093 5.61617 19.948 5.70414 20.0618 5.81969C20.1756 5.93524 20.2614 6.0753 20.3126 6.22914C20.3639 6.38297 20.3793 6.5465 20.3576 6.7072C20.3359 6.8679 20.2778 7.02151 20.1876 7.15625L14.8751 13V20.4375L10.6251 17.25V13L5.31255 7.15625C5.22234 7.02151 5.16416 6.8679 5.14248 6.7072C5.12079 6.5465 5.13618 6.38297 5.18746 6.22914C5.23874 6.0753 5.32455 5.93524 5.43831 5.81969C5.55208 5.70414 5.69078 5.61617 5.8438 5.5625Z" stroke="white" stroke-width="3" stroke-linecap="round" stroke-linejoin="round"/>
</svg>
